<?xml version="1.0" encoding="utf-8"?>
<!-- Generator: Adobe Illustrator 18.0.0, SVG Export Plug-In . SVG Version: 6.00 Build 0)  -->
<!DOCTYPE svg PUBLIC "-//W3C//DTD SVG 1.1//EN" "http://www.w3.org/Graphics/SVG/1.1/DTD/svg11.dtd">
<svg version="1.1" id="Layer_1" xmlns="http://www.w3.org/2000/svg" xmlns:xlink="http://www.w3.org/1999/xlink" x="0px" y="0px"
	 viewBox="0 0 149 134" enable-background="new 0 0 149 134" xml:space="preserve">
<g>
	<g>
		<defs>
			<circle id="SVGID_1_" cx="43.2" cy="96.6" r="19.8"/>
		</defs>
		<use xlink:href="#SVGID_1_"  overflow="visible" fill="#E9E8E6"/>
		<clipPath id="SVGID_2_">
			<use xlink:href="#SVGID_1_"  overflow="visible"/>
		</clipPath>
		<g clip-path="url(#SVGID_2_)">
			<g>
				<path fill="#FFD552" d="M52.3,102.5c0,4-3.2,7.2-7.2,7.2l0,0c-4,0-7.2-3.2-7.2-7.2V90.9c0-4,3.2-7.2,7.2-7.2l0,0
					c4,0,7.2,3.2,7.2,7.2V102.5z"/>
			</g>
			<g>
				<rect x="41.9" y="97" fill="#E4E4E4" width="6.5" height="7.6"/>
			</g>
			<g>
				<g>
					<rect x="40.1" y="101.8" fill="#D8455E" width="10.1" height="11.3"/>
				</g>
			</g>
			<g>
				<path fill="#F0F0F0" d="M51.6,91c-0.5-0.7-1.3,0.2-1.3,0.2c0-6.3-5.2-5.6-5.2-5.6s-5.2-0.8-5.2,5.6c0,0-0.8-0.8-1.3-0.2
					c-0.5,0.7,0.2,4.6,1.3,3.8c0,0,1,5.4,5.2,5.4c4.2,0,5.2-5.4,5.2-5.4C51.4,95.6,52.2,91.7,51.6,91z"/>
			</g>
			<g>
				<path fill="#272447" d="M49.6,100.8c0,0-1.4,7.5-4.5,7.5c-3.1,0-4.5-7.5-4.5-7.5c-2.3,0-5.4,1.9-5.4,1.9l-3.5,13.1h13.3h13.3
					l-3-12.6C55.4,103.2,52.2,100.8,49.6,100.8z"/>
			</g>
			<g>
				<g>
					<path fill="#E95163" d="M45.1,101.9c0,0-2.1-0.6-4.5,2.6l-0.6-3.6c0,0,1-1.6,1.7-1.6C41.7,99.3,43.8,101.3,45.1,101.9z"/>
				</g>
			</g>
			<g>
				<g>
					<path fill="#E95163" d="M45.1,101.9c0,0,2.1-0.6,4.5,2.6l0.6-3.6c0,0-1-1.6-1.7-1.6C48.5,99.3,46.5,101.3,45.1,101.9z"/>
				</g>
			</g>
			<g>
				<path fill="#FFD552" d="M48.7,87.7c0,0-6.3,4.9-8.9,3.5c0,0-1.6-6.1,5.6-6.1c4.5,0,5.5,4.8,4.9,6.1
					C50.4,91.2,48.8,89.8,48.7,87.7z"/>
			</g>
			<g>
				<g>
					<path fill="#101F4B" d="M37.9,91.8c-0.1-0.2-1.5-4.5,0.7-7.5c1.3-1.8,3.5-2.7,6.6-2.7c3.1,0,5.3,0.9,6.6,2.7
						c2.2,3,0.7,7.3,0.7,7.5l-0.9-0.3c0,0,1.3-4.1-0.5-6.7c-1.1-1.5-3.1-2.3-5.9-2.3c-2.8,0-4.8,0.8-5.9,2.3
						c-1.9,2.6-0.6,6.7-0.5,6.7L37.9,91.8z"/>
				</g>
				<g>
					<path fill="#101F4B" d="M48.6,97.7c-0.3,0-0.5,0-0.8,0c-0.2,0-0.4,0-0.6,0v-0.5c0.2,0,0.4,0,0.6,0c1.1,0,2.4,0.1,3.1-0.6
						c0.4-0.4,0.6-1,0.6-1.8H52c0,0.9-0.3,1.7-0.8,2.1C50.6,97.5,49.5,97.7,48.6,97.7z"/>
				</g>
				<g>
					<path fill="#54BECF" d="M39.8,95.1c0,0.1-0.1,0.2-0.2,0.2l-2.2,0.2c-0.1,0-0.2-0.1-0.2-0.2L36.8,91c0-0.1,0.1-0.2,0.2-0.2
						l2.2-0.2c0.1,0,0.2,0.1,0.2,0.2L39.8,95.1z"/>
				</g>
				<g>
					<path fill="#54BECF" d="M50.4,95.1c0,0.1,0.1,0.2,0.2,0.2l2.2,0.2c0.1,0,0.2-0.1,0.2-0.2l0.4-4.3c0-0.1-0.1-0.2-0.2-0.2
						L51,90.6c-0.1,0-0.2,0.1-0.2,0.2L50.4,95.1z"/>
				</g>
				<g>
					<path fill="#54BECF" d="M47.6,97.7c0,0.1-0.1,0.2-0.2,0.2h-1.1c-0.1,0-0.2-0.1-0.2-0.2v-0.7c0-0.1,0.1-0.2,0.2-0.2h1.1
						c0.1,0,0.2,0.1,0.2,0.2V97.7z"/>
				</g>
			</g>
		</g>
	</g>
</g>
<circle fill="#E9E8E6" cx="104.1" cy="65.3" r="34.3"/>
<g>
	<path fill="#F2F9FF" d="M124.5,89.2V45.3c0-2.2-1.8-3.9-3.9-3.9H91.5v47.8H124.5z"/>
	<g>
		<g>
			<rect x="95.1" y="70.4" fill="#50667E" width="8.2" height="6.5"/>
			<g>
				<rect x="105" y="70.4" fill="#B8D1E6" width="16" height="0.7"/>
				<rect x="105" y="72.3" fill="#B8D1E6" width="16" height="0.7"/>
				<rect x="105" y="74.1" fill="#B8D1E6" width="8" height="0.7"/>
			</g>
			<g>
				<rect x="95.1" y="79.3" fill="#50667E" width="25.9" height="0.7"/>
				<rect x="95.1" y="81.2" fill="#B8D1E6" width="25.9" height="0.7"/>
				<rect x="95.1" y="83" fill="#B8D1E6" width="12.9" height="0.7"/>
			</g>
		</g>
		<g>
			<g>
				<g>
					<rect x="96.2" y="63.7" fill="#B8D1E6" width="4.1" height="4"/>
					<rect x="101.8" y="63.7" fill="#B8D1E6" width="4.1" height="2.7"/>
					<rect x="107.5" y="63.7" fill="#B8D1E6" width="4.1" height="2.3"/>
					<rect x="113.1" y="63.7" fill="#B8D1E6" width="4.1" height="3.6"/>
				</g>
			</g>
			<rect x="96.2" y="52.7" fill="#CEE2F2" width="0.8" height="10.9"/>
			<rect x="97.3" y="48.6" fill="#21D8DE" width="0.8" height="15.1"/>
			<rect x="98.5" y="54.2" fill="#2A445E" width="0.8" height="9.4"/>
			<rect x="99.6" y="51.1" fill="#FF6D3B" width="0.8" height="12.5"/>
			<rect x="101.8" y="60.5" fill="#CEE2F2" width="0.8" height="3.1"/>
			<rect x="103" y="56.6" fill="#21D8DE" width="0.8" height="7"/>
			<rect x="104.1" y="57.9" fill="#2A445E" width="0.8" height="5.7"/>
			<rect x="105.2" y="53.3" fill="#FF6D3B" width="0.8" height="10.4"/>
			<rect x="107.5" y="59.9" fill="#CEE2F2" width="0.8" height="3.7"/>
			<rect x="108.6" y="60.6" fill="#21D8DE" width="0.8" height="3"/>
			<rect x="109.7" y="55" fill="#2A445E" width="0.8" height="8.6"/>
			<rect x="110.8" y="57.6" fill="#FF6D3B" width="0.8" height="6"/>
			<rect x="113.1" y="49.8" fill="#CEE2F2" width="0.8" height="13.8"/>
			<rect x="114.2" y="54.1" fill="#21D8DE" width="0.8" height="9.5"/>
			<rect x="115.4" y="58.3" fill="#2A445E" width="0.8" height="5.3"/>
			<rect x="116.5" y="51.9" fill="#FF6D3B" width="0.8" height="11.7"/>
			<circle fill="#2A445E" cx="120.3" cy="52.6" r="0.6"/>
			<circle fill="#21D8DE" cx="120.3" cy="56.1" r="0.6"/>
			<circle fill="#CEE2F2" cx="120.3" cy="59.6" r="0.6"/>
			<circle fill="#FF6D3B" cx="120.3" cy="63.1" r="0.6"/>
			<polygon fill="#50667E" points="95.5,63.6 95.5,47.8 95.1,47.8 95.1,48 95.4,48 95.4,50.1 95.1,50.1 95.1,50.2 95.4,50.2 
				95.4,52.4 95.1,52.4 95.1,52.5 95.4,52.5 95.4,54.6 95.1,54.6 95.1,54.7 95.4,54.7 95.4,56.9 95.1,56.9 95.1,57 95.4,57 
				95.4,59.1 95.1,59.1 95.1,59.2 95.4,59.2 95.4,61.4 95.1,61.4 95.1,61.5 95.4,61.5 95.4,63.7 118.4,63.7 118.4,63.6 			"/>
		</g>
	</g>
	<path fill="#B8D1E6" d="M87.6,41.4c-2.2,0-3.9,1.8-3.9,3.9h33c0-2.2,1.8-3.9,3.9-3.9H87.6z"/>
</g>
<g>
	<g>
		<g>
			<path opacity="0.1" fill="#FFFFFF" d="M98,66.4c1.4,0.5,2.4,1.6,3,2.9c1.2,2.8-0.1,6-2.9,7.2c-1.3,0.6-2.8,0.6-4.2,0l0,0
				c-1.4-0.5-2.4-1.6-3-2.9c-0.6-1.3-0.6-2.8-0.1-4.2c0.5-1.4,1.6-2.4,2.9-3C95.1,65.9,96.6,65.9,98,66.4L98,66.4z"/>
			<g>
				<g>
					<path fill="none" d="M93.5,77.5"/>
				</g>
				<g>
					<path fill="#A6DAE9" d="M94.3,76.7c-0.1,0-0.2,0-0.2-0.1C94.2,76.7,94.3,76.7,94.3,76.7z"/>
					<path fill="#A6DAE9" d="M94.1,76.7c-0.1,0-0.2-0.1-0.2-0.1C93.9,76.6,94,76.6,94.1,76.7z"/>
					<path opacity="0.6" fill="#FFFFFF" d="M98,66.4c-1.2-0.5-2.5-0.5-3.8-0.1c0.2-0.1,0.5-0.1,0.7-0.2c0.7,0,1.3,0.1,1.9,0.4
						c1.4,0.5,2.4,1.6,3,2.9c1.2,2.8-0.1,6-2.9,7.2c-0.4,0.2-0.8,0.3-1.2,0.4c-0.5,0-1-0.1-1.5-0.2c1.2,0.4,2.5,0.3,3.7-0.2
						c2.8-1.2,4.1-4.4,2.9-7.2C100.4,68,99.3,66.9,98,66.4z"/>
					<path fill="#A6DAE9" d="M94.2,66.3c0,0-0.1,0-0.1,0C94.1,66.3,94.1,66.3,94.2,66.3z"/>
					<path fill="#A6DAE9" d="M94,66.3c0,0-0.1,0-0.1,0C94,66.4,94,66.4,94,66.3z"/>
					<path fill="#A6DAE9" d="M93.9,66.4c0,0-0.1,0-0.1,0.1C93.8,66.4,93.8,66.4,93.9,66.4z"/>
				</g>
				<g>
					<path fill="#0E303F" d="M92.4,80.4c0.5,0.2,1,0,1.2-0.5l0.6-1.6c0.2-0.5,0-1-0.5-1.2c0,0,0,0,0,0c-0.5-0.2-1,0-1.2,0.5
						l-0.6,1.6C91.7,79.7,91.9,80.2,92.4,80.4C92.4,80.4,92.4,80.4,92.4,80.4z"/>
				</g>
			</g>
			<path fill="#2C5871" d="M98.7,64.7c-1.8-0.7-3.8-0.7-5.7,0.1c-1.8,0.8-3.2,2.2-3.9,4c-0.7,1.8-0.7,3.8,0.1,5.6
				c0.8,1.8,2.2,3.2,4,3.9c0,0,0,0,0,0c1.8,0.7,3.8,0.7,5.7-0.1c3.7-1.6,5.5-5.9,3.9-9.7C101.9,66.8,100.5,65.4,98.7,64.7z
				 M98.1,76.5c-1.3,0.6-2.8,0.6-4.2,0c-1.4-0.5-2.4-1.6-3-2.9c-0.6-1.3-0.6-2.8-0.1-4.2c0.5-1.4,1.6-2.4,2.9-3
				c1.3-0.6,2.8-0.6,4.2,0c1.4,0.5,2.4,1.6,3,2.9C102.1,72.1,100.9,75.3,98.1,76.5z"/>
			
				<rect x="88.6" y="79" transform="matrix(0.9281 0.3724 -0.3724 0.9281 38.1547 -27.6055)" fill="#103754" width="3.8" height="11.9"/>
			
				<rect x="89.4" y="79" transform="matrix(0.9281 0.3724 -0.3724 0.9281 38.1559 -27.6062)" fill="#2C5871" width="2.2" height="11.9"/>
			
				<rect x="86.8" y="88.7" transform="matrix(0.928 0.3725 -0.3725 0.928 39.764 -26.5754)" fill="#0E303F" width="3.8" height="1.8"/>
			
				<rect x="87.6" y="88.7" transform="matrix(0.9281 0.3724 -0.3724 0.9281 39.752 -26.5705)" fill="#164866" width="2.2" height="1.8"/>
			<g>
				<path opacity="0.6" fill="#FFFFFF" d="M92.1,68.9c1-1.1,2.3-1.8,3.7-1.9c0.5,0,1,0,1.5,0.1l0,1.1c-0.6-0.1-1.2-0.2-1.8-0.2
					c-1.5,0.1-2.8,0.8-3.7,1.9c-0.4,0.5-0.8,1.1-1,1.7C91,70.7,91.4,69.7,92.1,68.9z"/>
			</g>
		</g>
	</g>
	<circle fill="#103754" cx="75" cy="95.9" r="0.6"/>
</g>
<g>
	<circle fill="#E9E8E6" cx="42.9" cy="43.2" r="26.2"/>
	<g>
		<g>
			
				<rect x="30.3" y="25" transform="matrix(-1 -9.837143e-03 9.837143e-03 -1 85.8562 86.8524)" fill-rule="evenodd" clip-rule="evenodd" fill="#FFFFFF" width="25.8" height="36.4"/>
			
				<rect x="37" y="28.9" transform="matrix(-1 -9.800905e-03 9.800905e-03 -1 86.2696 58.8553)" fill-rule="evenodd" clip-rule="evenodd" fill="#CCCCCC" width="12.5" height="0.6"/>
			
				<rect x="32.7" y="30.5" transform="matrix(-1 -9.809011e-03 9.809011e-03 -1 86.2229 62.0635)" fill-rule="evenodd" clip-rule="evenodd" fill="#CCCCCC" width="21" height="0.6"/>
			
				<rect x="32.7" y="31.6" transform="matrix(-1 -9.825222e-03 9.825222e-03 -1 86.1891 64.3095)" fill-rule="evenodd" clip-rule="evenodd" fill="#CCCCCC" width="21" height="0.6"/>
			
				<rect x="32.7" y="32.7" transform="matrix(-1 -9.825461e-03 9.825461e-03 -1 86.1558 66.5553)" fill-rule="evenodd" clip-rule="evenodd" fill="#CCCCCC" width="21" height="0.6"/>
			
				<rect x="32.7" y="33.9" transform="matrix(-1 -9.817594e-03 9.817594e-03 -1 86.123 68.7999)" fill-rule="evenodd" clip-rule="evenodd" fill="#CCCCCC" width="21" height="0.6"/>
			
				<rect x="32.7" y="35" transform="matrix(-1 -9.839050e-03 9.839050e-03 -1 86.0895 71.046)" fill-rule="evenodd" clip-rule="evenodd" fill="#CCCCCC" width="21" height="0.6"/>
			
				<rect x="32.7" y="36.1" transform="matrix(-1 -9.840004e-03 9.840004e-03 -1 86.0563 73.291)" fill-rule="evenodd" clip-rule="evenodd" fill="#CCCCCC" width="21" height="0.6"/>
			
				<rect x="32.7" y="37.2" transform="matrix(-1 -9.825699e-03 9.825699e-03 -1 86.0234 75.5363)" fill-rule="evenodd" clip-rule="evenodd" fill="#CCCCCC" width="21" height="0.6"/>
			
				<rect x="32.7" y="38.4" transform="matrix(-1 -9.833090e-03 9.833090e-03 -1 85.9906 77.7821)" fill-rule="evenodd" clip-rule="evenodd" fill="#CCCCCC" width="21" height="0.6"/>
			
				<rect x="32.7" y="39.4" transform="matrix(-1 -9.824745e-03 9.824745e-03 -1 75.4375 79.8724)" fill-rule="evenodd" clip-rule="evenodd" fill="#CCCCCC" width="10.5" height="0.6"/>
			<g>
				
					<rect x="32.6" y="48.8" transform="matrix(-1 -9.794230e-03 9.794230e-03 -1 77.1657 98.3805)" fill-rule="evenodd" clip-rule="evenodd" fill="#CCCCCC" width="12.5" height="0.3"/>
				
					<rect x="32.6" y="42.1" transform="matrix(-1 -9.749170e-03 9.749170e-03 -1 66.9783 91.2028)" fill-rule="evenodd" clip-rule="evenodd" fill="#CC0000" width="2.2" height="6.7"/>
				
					<rect x="35.2" y="44.6" transform="matrix(-1 -9.820932e-03 9.820932e-03 -1 72.0849 93.8092)" fill-rule="evenodd" clip-rule="evenodd" fill="#D91110" width="2.2" height="4.2"/>
				
					<rect x="37.7" y="46.1" transform="matrix(-1 -9.834997e-03 9.834997e-03 -1 77.2098 95.2999)" fill-rule="evenodd" clip-rule="evenodd" fill="#E52020" width="2.2" height="2.8"/>
				
					<rect x="40.3" y="44.8" transform="matrix(-1 -9.749886e-03 9.749886e-03 -1 82.3793 94.0776)" fill-rule="evenodd" clip-rule="evenodd" fill="#F23030" width="2.2" height="4.1"/>
				
					<rect x="42.9" y="46" transform="matrix(-1 -9.820216e-03 9.820216e-03 -1 87.5054 95.3118)" fill-rule="evenodd" clip-rule="evenodd" fill="#FE3F3F" width="2.2" height="2.9"/>
				
					<rect x="48.3" y="48.9" transform="matrix(-1 -9.924400e-03 9.924400e-03 -1 97.2754 98.6828)" fill-rule="evenodd" clip-rule="evenodd" fill="#CCCCCC" width="1.1" height="0.3"/>
				
					<rect x="50" y="49" transform="matrix(-1 -9.758946e-03 9.758946e-03 -1 102.7843 98.7559)" fill-rule="evenodd" clip-rule="evenodd" fill="#CCCCCC" width="3.3" height="0.3"/>
			</g>
			
				<rect x="32.5" y="50.2" transform="matrix(-1 -9.816163e-03 9.816163e-03 -1 74.2578 101.3286)" fill-rule="evenodd" clip-rule="evenodd" fill="#CCCCCC" width="9.7" height="0.6"/>
			
				<rect x="32.5" y="51.3" transform="matrix(-1 -9.832375e-03 9.832375e-03 -1 74.2237 103.5751)" fill-rule="evenodd" clip-rule="evenodd" fill="#CCCCCC" width="9.7" height="0.6"/>
			
				<rect x="32.5" y="52.4" transform="matrix(-1 -9.847871e-03 9.847871e-03 -1 74.1896 105.8206)" fill-rule="evenodd" clip-rule="evenodd" fill="#CCCCCC" width="9.7" height="0.6"/>
			
				<rect x="32.5" y="53.5" transform="matrix(-1 -9.832136e-03 9.832136e-03 -1 74.1576 108.0655)" fill-rule="evenodd" clip-rule="evenodd" fill="#CCCCCC" width="9.7" height="0.6"/>
			
				<rect x="32.5" y="54.7" transform="matrix(-1 -9.848348e-03 9.848348e-03 -1 74.1236 110.3114)" fill-rule="evenodd" clip-rule="evenodd" fill="#CCCCCC" width="9.7" height="0.6"/>
			
				<rect x="32.5" y="55.8" transform="matrix(-1 -9.832136e-03 9.832136e-03 -1 74.0914 112.5568)" fill-rule="evenodd" clip-rule="evenodd" fill="#CCCCCC" width="9.7" height="0.6"/>
			
				<rect x="32.5" y="56.9" transform="matrix(-1 -9.802813e-03 9.802813e-03 -1 74.0598 114.8011)" fill-rule="evenodd" clip-rule="evenodd" fill="#CCCCCC" width="9.7" height="0.6"/>
			
				<rect x="32.5" y="58" transform="matrix(-1 -9.786362e-03 9.786362e-03 -1 69.2003 116.9744)" fill-rule="evenodd" clip-rule="evenodd" fill="#CCCCCC" width="4.8" height="0.6"/>
			
				<rect x="43.9" y="50.3" transform="matrix(-1 -9.799475e-03 9.799475e-03 -1 97.0254 101.6635)" fill-rule="evenodd" clip-rule="evenodd" fill="#CCCCCC" width="9.7" height="0.6"/>
			
				<rect x="43.9" y="51.4" transform="matrix(-1 -9.786600e-03 9.786600e-03 -1 96.993 103.9082)" fill-rule="evenodd" clip-rule="evenodd" fill="#CCCCCC" width="9.7" height="0.6"/>
			
				<rect x="43.9" y="52.5" transform="matrix(-1 -9.815686e-03 9.815686e-03 -1 96.9578 106.1549)" fill-rule="evenodd" clip-rule="evenodd" fill="#CCCCCC" width="9.7" height="0.6"/>
			
				<rect x="43.9" y="53.6" transform="matrix(-1 -9.819501e-03 9.819501e-03 -1 96.9252 108.4005)" fill-rule="evenodd" clip-rule="evenodd" fill="#CCCCCC" width="9.7" height="0.6"/>
			
				<rect x="43.9" y="54.8" transform="matrix(-1 -9.864559e-03 9.864559e-03 -1 96.8894 110.6478)" fill-rule="evenodd" clip-rule="evenodd" fill="#CCCCCC" width="9.7" height="0.6"/>
			
				<rect x="43.9" y="55.9" transform="matrix(-1 -9.848109e-03 9.848109e-03 -1 96.8575 112.8928)" fill-rule="evenodd" clip-rule="evenodd" fill="#CCCCCC" width="9.7" height="0.6"/>
			
				<rect x="43.9" y="57" transform="matrix(-1 -9.865513e-03 9.865513e-03 -1 96.824 115.1386)" fill-rule="evenodd" clip-rule="evenodd" fill="#CCCCCC" width="9.7" height="0.6"/>
			
				<rect x="43.9" y="58.1" transform="matrix(-1 -9.853831e-03 9.853831e-03 -1 93.9313 117.3418)" fill-rule="evenodd" clip-rule="evenodd" fill="#CCCCCC" width="6.8" height="0.6"/>
		</g>
		<g>
			<path fill="#4C8EB4" d="M23.1,47.4c-0.1-0.1-0.1-0.2-0.1-0.3C23,47,23.2,47,23.3,47l0.8,0.4c0.1,0.1,0.1,0.2,0.1,0.3
				c-0.1,0.1-0.2,0.1-0.3,0.1L23.1,47.4z"/>
			<path fill="#013C5C" d="M24.4,49.1c-0.7-0.4-1.1-1.1-0.8-1.6c0.3-0.5,1.1-0.6,1.8-0.2l22.9,12.6c0.7,0.4,1.1,1.1,0.8,1.6
				C48.8,62,48,62,47.3,61.6L24.4,49.1z"/>
			<path fill="#F9A818" d="M25.6,50c-0.6-0.3-0.9-1.1-0.5-1.8c0.3-0.6,1.1-0.9,1.8-0.5L47.4,59c0.6,0.3,0.9,1.1,0.5,1.8
				c-0.3,0.6-1.1,0.9-1.8,0.5L25.6,50z"/>
			<path fill="#013C5C" d="M45.9,61.2l-1.8-0.1l-6.2-3.4c0,0-0.3-0.4-0.3-0.7l5.1,2.8c0,0,1.5-0.7,1.6-2.5l2.9,1.6
				C47.2,58.8,47.2,60.4,45.9,61.2z"/>
		</g>
	</g>
	<g>
		<g>
			<rect x="48.1" y="42.2" fill="#A0DAD7" width="2.8" height="6"/>
			<g>
				<g>
					<rect x="48.4" y="42.4" fill="#F2F2F2" width="0.4" height="0.4"/>
					<rect x="49" y="42.4" fill="#F2F2F2" width="0.4" height="0.4"/>
					<rect x="49.6" y="42.4" fill="#F2F2F2" width="0.4" height="0.4"/>
					<rect x="50.2" y="42.4" fill="#F2F2F2" width="0.4" height="0.4"/>
				</g>
				<g>
					<rect x="48.4" y="43" fill="#F2F2F2" width="0.4" height="0.4"/>
					<rect x="49" y="43" fill="#F2F2F2" width="0.4" height="0.4"/>
					<rect x="49.6" y="43" fill="#F2F2F2" width="0.4" height="0.4"/>
					<rect x="50.2" y="43" fill="#F2F2F2" width="0.4" height="0.4"/>
				</g>
				<g>
					<rect x="48.4" y="43.6" fill="#F2F2F2" width="0.4" height="0.4"/>
					<rect x="49" y="43.6" fill="#F2F2F2" width="0.4" height="0.4"/>
					<rect x="49.6" y="43.6" fill="#F2F2F2" width="0.4" height="0.4"/>
					<rect x="50.2" y="43.6" fill="#F2F2F2" width="0.4" height="0.4"/>
				</g>
				<g>
					<rect x="48.4" y="44.1" fill="#F2F2F2" width="0.4" height="0.4"/>
					<rect x="49" y="44.1" fill="#F2F2F2" width="0.4" height="0.4"/>
					<rect x="49.6" y="44.1" fill="#F2F2F2" width="0.4" height="0.4"/>
					<rect x="50.2" y="44.1" fill="#F2F2F2" width="0.4" height="0.4"/>
				</g>
				<g>
					<rect x="48.4" y="44.7" fill="#F2F2F2" width="0.4" height="0.4"/>
					<rect x="49" y="44.7" fill="#F2F2F2" width="0.4" height="0.4"/>
					<rect x="49.6" y="44.7" fill="#F2F2F2" width="0.4" height="0.4"/>
					<rect x="50.2" y="44.7" fill="#F2F2F2" width="0.4" height="0.4"/>
				</g>
				<g>
					<rect x="48.4" y="45.3" fill="#F2F2F2" width="0.4" height="0.4"/>
					<rect x="49" y="45.3" fill="#F2F2F2" width="0.4" height="0.4"/>
					<rect x="49.6" y="45.3" fill="#F2F2F2" width="0.4" height="0.4"/>
					<rect x="50.2" y="45.3" fill="#F2F2F2" width="0.4" height="0.4"/>
				</g>
				<g>
					<rect x="48.4" y="45.9" fill="#F2F2F2" width="0.4" height="0.4"/>
					<rect x="49" y="45.9" fill="#F2F2F2" width="0.4" height="0.4"/>
					<rect x="49.6" y="45.9" fill="#F2F2F2" width="0.4" height="0.4"/>
					<rect x="50.2" y="45.9" fill="#F2F2F2" width="0.4" height="0.4"/>
				</g>
				<g>
					<rect x="48.4" y="46.4" fill="#F2F2F2" width="0.4" height="0.4"/>
					<rect x="49" y="46.4" fill="#F2F2F2" width="0.4" height="0.4"/>
					<rect x="49.6" y="46.4" fill="#F2F2F2" width="0.4" height="0.4"/>
					<rect x="50.2" y="46.4" fill="#F2F2F2" width="0.4" height="0.4"/>
				</g>
				<g>
					<rect x="48.4" y="47" fill="#F2F2F2" width="0.4" height="0.4"/>
					<rect x="49" y="47" fill="#F2F2F2" width="0.4" height="0.4"/>
					<rect x="49.6" y="47" fill="#F2F2F2" width="0.4" height="0.4"/>
					<rect x="50.2" y="47" fill="#F2F2F2" width="0.4" height="0.4"/>
				</g>
				<g>
					<rect x="48.4" y="47.6" fill="#F2F2F2" width="0.4" height="0.4"/>
					<rect x="49" y="47.6" fill="#F2F2F2" width="0.4" height="0.4"/>
					<rect x="49.6" y="47.6" fill="#F2F2F2" width="0.4" height="0.4"/>
					<rect x="50.2" y="47.6" fill="#F2F2F2" width="0.4" height="0.4"/>
				</g>
			</g>
		</g>
		<g>
			<rect x="50.3" y="41.4" fill="#595959" width="3.3" height="6.8"/>
			<rect x="50.6" y="41.1" fill="#ECA539" width="2.7" height="0.4"/>
			<g>
				<rect x="50.6" y="41.8" fill="#F2F2F2" width="2.8" height="0.2"/>
				<rect x="50.6" y="42.3" fill="#F2F2F2" width="2.8" height="0.2"/>
				<rect x="50.6" y="42.8" fill="#F2F2F2" width="2.8" height="0.2"/>
				<rect x="50.6" y="43.3" fill="#F2F2F2" width="2.8" height="0.2"/>
				<rect x="50.6" y="43.7" fill="#F2F2F2" width="2.8" height="0.2"/>
				<rect x="50.6" y="44.2" fill="#F2F2F2" width="2.8" height="0.2"/>
				<rect x="50.6" y="44.7" fill="#F2F2F2" width="2.8" height="0.2"/>
				<rect x="50.6" y="45.2" fill="#F2F2F2" width="2.8" height="0.2"/>
				<rect x="50.6" y="45.7" fill="#F2F2F2" width="2.8" height="0.2"/>
				<rect x="50.6" y="46.2" fill="#F2F2F2" width="2.8" height="0.2"/>
				<rect x="50.6" y="46.7" fill="#F2F2F2" width="2.8" height="0.2"/>
				<rect x="50.6" y="47.1" fill="#F2F2F2" width="2.8" height="0.2"/>
				<rect x="50.6" y="47.6" fill="#F2F2F2" width="2.8" height="0.2"/>
			</g>
		</g>
		<g>
			<rect x="46.3" y="45.7" fill="#ECA539" width="3.4" height="2.5"/>
			<rect x="46.7" y="46.7" fill="#F2F2F2" width="1.7" height="0.8"/>
			<rect x="48.8" y="46.7" fill="#F2F2F2" width="0.6" height="1.4"/>
			<polygon fill="#595959" points="49.8,46.5 46.3,46.5 46.3,45.7 49.8,45.7 			"/>
		</g>
	</g>
</g>
</svg>
