<?xml version="1.0" encoding="utf-8"?>
<!-- Generator: Adobe Illustrator 18.0.0, SVG Export Plug-In . SVG Version: 6.00 Build 0)  -->
<!DOCTYPE svg PUBLIC "-//W3C//DTD SVG 1.1//EN" "http://www.w3.org/Graphics/SVG/1.1/DTD/svg11.dtd">
<svg version="1.1" id="Layer_1" xmlns="http://www.w3.org/2000/svg" xmlns:xlink="http://www.w3.org/1999/xlink" x="0px" y="0px"
	 viewBox="0 0 149 134" enable-background="new 0 0 149 134" xml:space="preserve">
<circle fill="#E9E8E6" cx="106.2" cy="76.4" r="36.4"/>
<circle fill="#E9E8E6" cx="36.7" cy="52.6" r="30.9"/>
<g>
	<path fill="#FFD228" d="M19.2,67.1c-0.2-0.2-0.4-0.3-0.6-0.4c-0.1-0.1-0.2-0.3-0.4-0.3c-0.2-0.2-0.3-0.4-0.6-0.5
		c0-0.1-0.1-0.3-0.3-0.3c-0.1-0.2-0.3-0.4-0.5-0.6c0-0.1-0.1-0.2-0.2-0.2c-0.1-0.3-0.3-0.5-0.5-0.7c0-0.1,0-0.2-0.2-0.3
		c-0.5-1.1-0.9-2.2-1-3.4c0,0-0.1,0-0.1-0.1c0-0.7,0-1.5,0-2.2c0.2-0.1,0.1-0.2,0.1-0.4c0.3-1.7,1-3.3,2.1-4.7c0,0,0-0.1,0.1-0.1
		c0.4-0.4,0.9-0.9,1.3-1.3c0.9-0.6,1.8-1.2,2.8-1.6c0.2,0,0.5-0.1,0.7-0.2c0.5-0.1,1-0.2,1.5-0.3c0.2,0,0.3,0.1,0.5,0
		c0.4,0,0.9,0,1.3,0c0.1,0.1,0.3,0.1,0.4,0.1c0.4,0.1,0.7,0.1,1.1,0.2c0.1,0.1,0.3,0.1,0.4,0.1c0.2,0.1,0.5,0.2,0.7,0.2
		c0.1,0.1,0.3,0.2,0.5,0.2c0.4,0.1,0.4,0.4,0.1,0.6c-0.1,0.1-0.2,0.3-0.3,0.5c-0.3,0.3-0.5,0.7-0.6,1.1c-0.1,0-0.1,0.1-0.1,0.1
		c-0.1,0-0.1,0.1-0.1,0.2l0,0l0,0c-0.1,0-0.1-0.1-0.2-0.1c-0.3-0.2-0.7-0.3-1-0.3C26.1,51.9,26,52,25.8,52c-0.4-0.1-0.8-0.1-1.3-0.1
		c-0.1,0-0.3-0.1-0.4,0c-0.6,0-1.1,0.1-1.6,0.4c-0.1,0-0.1,0-0.2,0.1l0,0c-0.2,0-0.3,0.1-0.4,0.2c-0.1,0-0.1,0-0.1,0.1l0,0
		c-0.5,0.1-1,0.5-1.4,0.8c-0.8,0.7-1.5,1.4-1.9,2.4l0,0c-0.1,0-0.1,0.1-0.1,0.2c-0.2,0.2-0.3,0.4-0.3,0.7c-0.3,0.5-0.4,1.1-0.4,1.6
		c-0.1,0.2-0.1,0.3,0,0.5c0,0.4-0.1,0.8,0.1,1.2c0,0.1-0.1,0.2,0.1,0.3c0,0.4,0.1,0.7,0.3,1c0,0.1,0,0.2,0.1,0.2
		c0.1,0.4,0.2,0.6,0.4,0.9c0,0.1,0,0.1,0.1,0.2c0.1,0.3,0.3,0.6,0.5,0.8c0,0.1,0.1,0.2,0.2,0.3c0.2,0.3,0.4,0.5,0.7,0.7
		c0.1,0.1,0.1,0.2,0.3,0.2c0.2,0.2,0.4,0.4,0.7,0.4c0.1,0.1,0.2,0.2,0.3,0.2c0.3,0.2,0.5,0.3,0.9,0.4c0.1,0.1,0.2,0.1,0.3,0.1
		c0.3,0.2,0.7,0.3,1,0.2c0.1,0.1,0.3,0.1,0.4,0.1c0.4,0.1,0.8,0.1,1.3,0c0.1,0,0.3,0,0.4-0.1c0.6,0,1.2-0.2,1.8-0.5
		c0.1,0,0.1,0,0.2-0.1l0,0c0.4-0.1,0.6-0.2,0.9-0.5c0.9-0.5,1.5-1.1,2-2c0.3-0.3,0.5-0.6,0.6-1l0,0c0.1,0,0.1-0.1,0.1-0.2
		c0.3-0.6,0.5-1.2,0.5-1.8c0.1-0.1,0.1-0.3,0.1-0.4c0-0.4,0.1-0.9,0-1.3c0-0.1,0-0.2,0-0.3c0-0.4-0.1-0.7-0.2-1.1
		c0.1-0.2,0.2-0.4,0.3-0.7c0.3-0.6,0.6-1.3,0.8-2c0.1-0.1,0.2-0.3,0.2-0.5c0-0.1,0.1-0.2,0.2-0.1c0.1,0.3,0.2,0.5,0.4,0.7
		c0,0.1,0.1,0.3,0.2,0.4c0.1,0.3,0.2,0.6,0.4,0.8c0,0.2,0,0.3,0.1,0.4c0,0.3,0.1,0.5,0.2,0.8c-0.1,0.2,0,0.3,0.1,0.4
		c0,0.4,0,0.8,0.2,1.2c0,0.1,0,0.3,0,0.4c0,0.4-0.1,0.8-0.1,1.3c0,0.2-0.1,0.3-0.1,0.5c-0.1,0.5-0.3,1.1-0.4,1.6
		c-0.1,0.2-0.2,0.4-0.2,0.6l0,0c-0.1,0-0.1,0.1-0.1,0.2c-0.6,1-1.2,2-2,2.9c-0.8,0.9-1.9,1.5-2.9,2.1c-0.1,0-0.1,0-0.2,0.1l0,0
		c-0.2,0-0.4,0.1-0.6,0.2c-0.6,0.2-1.1,0.3-1.7,0.5c-0.2,0-0.3,0-0.5,0.1c-0.5,0-0.9,0-1.4,0.1c-0.1,0-0.2,0-0.3,0
		c-0.4-0.1-0.8-0.1-1.2-0.1c-0.1-0.1-0.2-0.1-0.3-0.1c-0.4-0.1-0.7-0.2-1.1-0.3c-0.1-0.1-0.1-0.1-0.3-0.1c-0.3-0.2-0.6-0.3-0.9-0.4
		c0-0.1-0.1-0.1-0.1-0.1c-0.3-0.2-0.5-0.4-0.9-0.5C19.4,67.2,19.3,67.1,19.2,67.1z"/>
	<path fill="#E95163" d="M56.2,40.7c0.3,0.2,0.6,0.4,0.9,0.5c0.1,0,0.2,0.1,0.3,0.1c0.3,0.2,0.5,0.3,0.8,0.5
		c0.2,0.1,0.3,0.2,0.1,0.4c-0.5,0.8-0.9,1.5-1.3,2.3c-0.1,0.1-0.1,0.3-0.3,0.3c-0.2-0.2-0.5-0.3-0.8-0.4c-0.1-0.1-0.2-0.1-0.3-0.2
		c-0.3-0.2-0.6-0.4-0.9-0.5c0,0.5,0,0.9,0,1.4c0,0.1,0,0.3,0,0.4c0,0.4,0,0.8,0,1.3c0,0.1,0,0.3,0,0.4c0,0.4,0,0.8,0,1.3
		c0,0.1,0,0.3,0,0.4c0,0.4,0,0.8,0,1.3c0,0.1,0,0.3,0,0.4c0,0.4,0,0.8,0,1.3c0,0.1,0,0.3,0,0.4c0,0.4,0,0.8,0,1.3c0,0.1,0,0.3,0,0.4
		c0,0.4,0,0.8,0,1.3c0,0.1,0,0.3,0,0.4c0,0.4,0,0.8,0,1.3c0,0.1,0,0.3,0,0.4c0,0.4,0,0.8,0,1.3c0,0.1,0,0.3,0,0.4
		c-0.1,0.5-0.4,0.8-0.9,0.9c-0.1,0-0.3,0-0.4,0c-0.4,0-0.8,0-1.3,0c-0.1,0-0.3,0-0.4,0c-0.4,0-0.8,0-1.3,0c-0.1,0-0.3,0-0.4,0
		c-0.4,0-0.8,0-1.3,0c-0.1,0-0.3,0-0.4,0c-0.4,0-0.8,0-1.3,0c-0.1,0-0.3,0-0.4,0c-0.2,0-0.4,0-0.7,0c0-0.2,0.1-0.3,0.1-0.4
		c0.1-0.2,0.2-0.4,0.2-0.7c0.1-0.1,0.1-0.2,0.2-0.3c0.1-0.5,0.3-0.7,0.8-0.6c0.1,0,0.3,0,0.4,0c0.4,0,0.8,0,1.3,0c0.1,0,0.3,0,0.4,0
		c0.4,0,0.8,0,1.3,0c0.1,0,0.3,0,0.4,0c0.4,0,0.8,0,1.3,0c0.4,0.1,0.5-0.1,0.4-0.4c0-0.4,0-0.8,0-1.3c0-0.1,0-0.3,0-0.4
		c0-0.4,0-0.8,0-1.3c0-0.1,0-0.3,0-0.4c0-0.4,0-0.8,0-1.3c0-0.1,0-0.3,0-0.4c0-0.4,0-0.8,0-1.3c0-0.1,0-0.3,0-0.4c0-0.4,0-0.8,0-1.3
		c0-0.1,0-0.3,0-0.4c0-0.4,0-0.8,0-1.3c0-0.1,0-0.3,0-0.4c0-0.4,0-0.8,0-1.3c0-0.1,0-0.3,0-0.4c0-0.4,0-0.8,0-1.3c0-0.1,0-0.3,0-0.4
		c0-0.4,0-0.8,0-1.3c0-0.1,0-0.3-0.1-0.3c-0.3-0.2-0.5-0.4-0.8-0.5c-0.1-0.1-0.2-0.1-0.3-0.2c-0.3-0.2-0.6-0.4-0.9-0.5
		c-0.1-0.1-0.2-0.1-0.3-0.2c-0.2-0.2-0.5-0.3-0.8-0.4c0-0.1-0.1-0.1-0.2-0.1c-0.3-0.2-0.5-0.4-0.8-0.5c-0.1-0.1-0.2-0.2-0.3-0.2
		c-0.3-0.2-0.5-0.4-0.9-0.5c-0.1-0.1-0.2-0.1-0.3-0.2c-0.2-0.2-0.5-0.3-0.8-0.4c0-0.1-0.1-0.1-0.2-0.1c-0.3-0.2-0.6-0.3-0.8-0.5
		c-0.1-0.1-0.2-0.1-0.3-0.2c-0.3-0.2-0.5-0.4-0.9-0.5c-0.1-0.1-0.2-0.1-0.3-0.2c-0.2-0.2-0.5-0.3-0.8-0.4c-0.1,0-0.1-0.1-0.2-0.1
		c-0.3-0.2-0.6-0.4-0.9-0.5c-0.1,0-0.2-0.1-0.3-0.1c-0.1-0.1-0.2-0.1-0.4,0c-0.8,0.5-1.6,0.9-2.3,1.4c-0.3,0.1-0.6,0.3-0.9,0.5
		c-1,0.6-2.1,1.1-3.1,1.8c-0.4,0.1-0.7,0.4-1,0.6c-0.8,0.5-1.6,0.9-2.4,1.4c-0.4,0.3-1,0.4-1.2,0.8c-0.2,0.4,0,1,0,1.5
		c0,0.1,0,0.3,0,0.4c0,0.4,0,0.8,0,1.3c0,0.1,0,0.3,0,0.4c0,0.4,0,0.8,0,1.3c0,0.1,0,0.3,0,0.4c0,0.3,0,0.6,0,0.9
		c-0.3-0.1-0.5-0.2-0.7-0.3c-0.1,0-0.2-0.1-0.3-0.1c-0.3-0.1-0.6-0.3-0.9-0.3c-0.1,0-0.1-0.1-0.2-0.1c0-0.4,0-0.8,0-1.2
		c0-0.1,0-0.3,0-0.4c0-0.4,0-0.8,0-1.3c0-0.1,0-0.3,0-0.4c0-0.3,0-0.6,0-0.8c0,0,0.1-0.2-0.1-0.1c-0.5,0.2-0.9,0.5-1.3,0.7
		c-0.3,0.1-0.5,0.3-0.7,0.4c-0.1-0.3-0.2-0.5-0.4-0.8c0-0.1,0-0.1-0.1-0.1c-0.2-0.3-0.3-0.6-0.5-0.8c-0.1-0.1-0.1-0.2-0.2-0.4
		c-0.1-0.3-0.3-0.5-0.4-0.7c0.1-0.2,0.4-0.2,0.5-0.4c1-0.6,2-1.1,3-1.7c0.4-0.1,0.7-0.4,1-0.6c1-0.6,2-1.1,3-1.7
		c0.4-0.2,0.7-0.4,1-0.6c1-0.6,2.1-1.1,3.1-1.8c0.4-0.2,0.7-0.4,1-0.6c1-0.6,2-1.1,3-1.7c0.3-0.1,0.6-0.3,0.8-0.4
		c0.4-0.1,0.8-0.1,1.3,0c0.1,0,0.2,0.1,0.3,0.1c0.2,0.2,0.5,0.3,0.8,0.4c0,0.1,0.1,0.1,0.2,0.1c0.3,0.2,0.5,0.4,0.8,0.5
		c0.1,0.1,0.2,0.1,0.3,0.2c0.3,0.2,0.6,0.4,0.9,0.5c0.1,0.1,0.2,0.1,0.3,0.2c0.2,0.2,0.5,0.3,0.8,0.4c0,0.1,0.1,0.1,0.2,0.1
		c0.2,0.2,0.5,0.4,0.8,0.5c0.1,0.1,0.2,0.1,0.3,0.2c0.3,0.2,0.5,0.4,0.9,0.5c0.1,0.1,0.2,0.2,0.3,0.1c0-0.2,0-0.3,0-0.5
		c0-0.4,0-0.8,0-1.3c0-0.1,0-0.3,0-0.4c0-0.4,0-0.8,0-1.3c0-0.1,0-0.3,0-0.4c0,0,0.1-0.1,0.1-0.1c0.1,0,0.3,0,0.4,0
		c0.4,0,0.8,0,1.3,0c0.1,0,0.3,0,0.4,0c0.4,0,0.8,0,1.3,0c0.1,0,0.2,0,0.2,0c0,0.4,0,0.8,0,1.2c0,0.1,0,0.3,0,0.4c0,0.4,0,0.8,0,1.3
		c0,0.1,0,0.3,0,0.4c0,0.4,0,0.8,0,1.3c0,0.1,0,0.3,0,0.4c0,0.4-0.1,0.8,0,1.2c0.1,0.1,0.2,0.1,0.3,0.2c0.3,0.2,0.6,0.4,0.9,0.5
		c0.1,0,0.2,0.1,0.3,0.1c0.2,0.2,0.5,0.3,0.7,0.4c0.1,0.1,0.2,0.1,0.4,0.2c0.2,0.1,0.4,0.2,0.6,0.4C56,40.6,56.1,40.6,56.2,40.7z"/>
	<path fill="#303354" d="M45.7,67.9c-0.3-0.2-0.6-0.4-0.9-0.5c-0.1-0.1-0.2-0.1-0.3-0.1c-0.1-0.1-0.2-0.2-0.4,0
		c-0.4,0.3-0.8,0.4-1.2,0.3c-0.1,0-0.1,0-0.2-0.1c-0.2-0.2-0.5-0.3-0.6-0.6c-0.1-0.1-0.1-0.3-0.3-0.3c-0.2,0-0.2,0.2-0.2,0.3
		c-0.1,0.1-0.1,0.3-0.1,0.4c-0.2,0.6-0.5,1.3-0.7,1.9c-0.1,0.2-0.2,0.4-0.2,0.7c-0.3,0.7-0.5,1.4-0.8,2c-0.2,0.2-0.3,0.3-0.5,0.5
		c-0.4,0.3-0.9,0.3-1.4,0.2c-0.1,0-0.2-0.1-0.4-0.1c-0.3-0.1-0.6-0.2-0.9-0.3c-0.1-0.1-0.2-0.1-0.3-0.1c-0.3-0.1-0.5-0.2-0.8-0.3
		c0-0.2,0.1-0.3,0.1-0.5c0.3-0.6,0.5-1.3,0.7-2c0-0.1,0.1-0.2,0.1-0.3c0.7-1.9,1.4-3.8,2.1-5.8c1-2.7,2-5.3,2.9-8
		c0.1-0.1,0.1-0.4,0.4-0.3c0.1,0,0.2,0.1,0.3,0.1c0.3,0.1,0.6,0.3,0.9,0.3c0.1,0.1,0.2,0.1,0.3,0.1c0.3,0.1,0.6,0.2,0.8,0.4
		c0.1,0.1,0.1,0.1,0.2,0.2c0.1,0.2,0.3,0.4,0.4,0.6c0,0.1,0.1,0.3,0.1,0.4c0.1,0.5-0.2,1-0.3,1.5c-0.1,0.2-0.2,0.4-0.2,0.7
		c-0.2,0.7-0.5,1.3-0.7,2c-0.1,0.2-0.2,0.4-0.2,0.7c-0.1,0.3-0.3,0.6-0.4,0.9c-0.1,0.2,0,0.3,0.2,0.2c0.2-0.1,0.4-0.1,0.6-0.2
		c0.1,0,0.3,0,0.4,0.1c0.2,0.1,0.5,0.2,0.7,0.4c0.1,0.1,0.1,0.2,0.2,0.2c0.1,0.4,0.1,0.8,0.7,0.7c0.1,0.1,0.2,0.1,0.3,0.1
		c0.4,0.1,0.7,0.2,1.1,0.2c0.1,0,0.3,0,0.4,0.1c0.4,0,0.8,0,1.1,0.1c0.1,0,0.3,0,0.4,0c0.5,0,0.9,0,1.4-0.1c0.2,0,0.3,0,0.5,0
		c0.5-0.1,0.9-0.1,1.4-0.2c0.1,0,0.3,0,0.4,0c0.4,0.1,0.7,0.1,1.1,0.2c0.1,0.1,0.2,0.1,0.2,0.1c0.3,0.1,0.5,0.3,0.8,0.4
		c0.1,0.1,0.1,0.1,0.2,0.2c0.2,0.2,0.5,0.5,0.7,0.7c0,0,0.1,0.1,0.1,0.1c0.2,0.3,0.3,0.7,0.5,1c0,0.1,0,0.2,0.1,0.3
		c0,0.3,0.1,0.7,0.1,1c0,0.1,0,0.3,0,0.4c-0.1,0.7-0.3,1.3-0.7,1.9c-0.3,0.4-0.6,0.7-1,1c-0.6,0.4-1.2,0.6-1.9,0.7
		c-0.1,0-0.3,0-0.4,0c-0.4,0-0.7-0.1-1.1-0.2c-0.1,0-0.2-0.1-0.4-0.1c-0.3-0.1-0.6-0.3-0.8-0.4c0-0.1-0.1-0.1-0.1-0.1
		c-0.2-0.2-0.5-0.5-0.7-0.7c0-0.1-0.1-0.2-0.2-0.2c-0.2-0.2-0.4-0.4-0.6-0.6c-0.1-0.1-0.1-0.2-0.3-0.3c-0.2-0.2-0.4-0.4-0.7-0.6
		c-0.1-0.1-0.2-0.2-0.3-0.2c-0.2-0.2-0.4-0.3-0.6-0.4c-0.1-0.1-0.2-0.2-0.4-0.3c-0.2-0.2-0.4-0.3-0.7-0.4C45.9,68,45.8,68,45.7,67.9
		z"/>
	<path fill="#303354" d="M34.2,70.8c-0.2-0.2-0.6,0-0.6-0.4c0.1-0.2,0.2-0.4,0.2-0.7c0.3-0.6,0.5-1.3,0.7-2c0.1-0.2,0.2-0.4,0.2-0.7
		c0.3-0.7,0.5-1.3,0.8-2c0.1-0.2,0.1-0.4,0.2-0.6c0.3-0.7,0.5-1.4,0.7-2.1c0.1-0.2,0.2-0.4,0.2-0.7c0.3-0.6,0.5-1.3,0.7-2
		c0.1-0.2,0.1-0.4,0.2-0.6c0.3-0.7,0.5-1.3,0.7-2c0.1-0.2,0.2-0.4,0.2-0.7c0.1-0.3,0.2-0.5,0.3-0.8c0.3-0.7,0.3-0.7,0.9-0.5
		c0.1,0,0.2,0.1,0.3,0.1c0.2,0.2,0.6,0,0.6,0.4l0,0c-0.1,0-0.1,0.1-0.1,0.2c0,0.1-0.1,0.1-0.1,0.2c-1.2,3.2-2.3,6.4-3.5,9.6
		c-0.5,1.4-1,2.7-1.4,4.1c-0.1,0.4-0.3,0.7-0.4,1.1c-0.1,0.3-0.2,0.5-0.6,0.3c-0.1,0-0.2,0-0.2-0.1C34.4,70.8,34.3,70.8,34.2,70.8z"
		/>
	<path fill="#FFFFFF" d="M28.4,48.1c0.3,0.1,0.6,0.2,0.9,0.3c-0.3,0.5-0.8,1-1.3,1.3c-0.3,0-0.5-0.1-0.7-0.2c0-0.2,0.1-0.3,0.2-0.5
		C27.8,48.7,28.2,48.5,28.4,48.1z"/>
	<path fill="#F1F1F2" d="M31.3,62c0-0.1,0-0.1,0.1-0.2C31.4,61.9,31.4,62,31.3,62z"/>
	<path fill="#F1F1F2" d="M27.6,65.6c0-0.1,0.1-0.1,0.2-0.1C27.8,65.6,27.7,65.6,27.6,65.6z"/>
	<path fill="#F1F1F2" d="M28.2,43.9C28.2,43.8,28.2,43.8,28.2,43.9C28.3,43.7,28.2,43.8,28.2,43.9z"/>
	<path fill="#54BECF" d="M32.6,48.6c0.1,0.1,0.2,0.1,0.3,0.2c0,0.4-0.3,0.8-0.4,1.2c-0.1,0.2-0.1,0.4-0.2,0.6
		c-0.1,0.2-0.2,0.4-0.2,0.6c0,0,0,0,0,0c-0.1,0-0.1,0.1-0.1,0.2c-0.3,0.6-0.6,1.3-0.8,2c-0.1,0.2-0.2,0.4-0.2,0.6
		c-0.3,0.6-0.6,1.3-0.8,2l0,0c-0.1,0-0.1,0.1-0.1,0.2c-0.1,0.2-0.2,0.4-0.3,0.7c-0.3,0.6-0.6,1.3-0.8,2c-0.1,0.3-0.3,0.5-0.3,0.8
		c-0.3,0.6-0.6,1.3-0.8,2c-0.1,0.2-0.2,0.4-0.2,0.6c0,0,0,0,0,0c-0.1,0-0.1,0.1-0.1,0.2c-0.3,0.4-0.4,0.9-0.6,1.4
		c-0.1,0.4-0.3,0.5-0.6,0.5c-0.2,0-0.5,0-0.7,0.1c-0.2,0-0.4-0.1-0.5,0.1c-0.3-0.1-0.7,0.2-0.9-0.2c0-0.1-0.1-0.2-0.2-0.2
		c-0.1-0.3-0.3-0.5-0.5-0.8c0-0.1-0.1-0.3-0.2-0.3c-0.1-0.3-0.3-0.5-0.5-0.7c0-0.1-0.1-0.2-0.2-0.2c-0.1-0.3-0.3-0.5-0.5-0.7
		c0-0.1-0.1-0.2-0.2-0.3c-0.1-0.3-0.3-0.5-0.5-0.8c0-0.1-0.1-0.3-0.2-0.3c-0.1-0.3-0.3-0.5-0.5-0.7c0-0.1-0.1-0.2-0.2-0.2
		c-0.1-0.2-0.3-0.5-0.5-0.7c0-0.1-0.1-0.2-0.2-0.3c-0.4-0.4-0.3-0.8,0.1-1.2c0.1-0.1,0.2-0.2,0.4-0.4c0.2,0.2,0.4,0.4,0.7,0.5
		c0.1,0.1,0.1,0.2,0.3,0.2c0.2,0.2,0.5,0.4,0.7,0.6c0,0.1,0.1,0.1,0.2,0.1c0.2,0.2,0.4,0.4,0.7,0.5c0.1,0.1,0.2,0.2,0.3,0.3
		c0.2,0.2,0.4,0.4,0.7,0.5c0,0.1,0.1,0.2,0.2,0.2c0.2,0.2,0.4,0.3,0.6,0.5c0.2,0.1,0.3,0.1,0.4-0.1c0.6-1,1.2-2.1,1.9-3.1
		c0.2-0.3,0.4-0.6,0.6-1c0,0,0-0.1,0.1-0.1c0.1,0,0.1-0.1,0.1-0.2c0.7-1,1.3-2,1.9-3.1c0.3-0.3,0.5-0.6,0.6-1c0,0,0-0.1,0.1-0.1
		c0.1,0,0.1-0.1,0.1-0.2c0.6-0.8,1-1.6,1.5-2.4c0.2-0.3,0.4-0.4,0.7-0.2C32.5,48.5,32.5,48.5,32.6,48.6z"/>
	<path fill="#F1F1F2" d="M30.3,51.1c0,0.1,0,0.1-0.1,0.2C30.2,51.2,30.2,51.1,30.3,51.1z"/>
	<path fill="#F1F1F2" d="M27.7,62.4c0-0.1,0-0.1,0.1-0.2C27.8,62.3,27.8,62.4,27.7,62.4z"/>
	<path fill="#F1F1F2" d="M32,51.3c0-0.1,0-0.1,0.1-0.2C32.1,51.2,32.1,51.3,32,51.3z"/>
	<path fill="#F1F1F2" d="M27.6,55.6c0-0.1,0-0.2,0.1-0.2C27.7,55.5,27.6,55.6,27.6,55.6z"/>
</g>
<g>
	<g>
		<g opacity="0.2">
			<path fill="#48423B" d="M119.1,56.5v-2.3c0-0.7-0.7-1.2-1.5-1.2c-0.8,0-1.5,0.5-1.5,1.2v2.3h-5.8v-2.3c0-0.7-0.7-1.2-1.5-1.2
				c-0.8,0-1.5,0.5-1.5,1.2v2.3h-5.9v-2.3c0-0.7-0.7-1.2-1.5-1.2c-0.8,0-1.5,0.5-1.5,1.2v2.3h-6.3v-2.3c0-0.7-0.7-1.2-1.5-1.2
				c-0.8,0-1.5,0.5-1.5,1.2v2.3h-7v6.1v1.3v0.3v1.3v34.3h43.7V65.5v-1.3v-0.3v-1.3v-6.1H119.1z"/>
		</g>
		<rect x="82.3" y="56.6" fill="#FFFFFF" width="43.7" height="43.2"/>
		<rect x="82.3" y="62.6" fill="#E2E2E2" width="43.7" height="1.3"/>
		<rect x="82.3" y="64.2" fill="#E2E2E2" width="43.7" height="1.3"/>
		<rect x="87.5" y="71.1" fill="#E2E2E2" width="6.9" height="6.9"/>
		<rect x="96.3" y="71.1" fill="#E2E2E2" width="6.9" height="6.9"/>
		<rect x="105" y="71.1" fill="#E2E2E2" width="6.9" height="6.9"/>
		<rect x="113.8" y="71.1" fill="#E2E2E2" width="6.9" height="6.9"/>
		<rect x="87.5" y="79.6" fill="#E2E2E2" width="6.9" height="6.9"/>
		<rect x="96.2" y="79.6" fill="#E2E2E2" width="6.9" height="6.9"/>
		<rect x="97.8" y="81.2" fill="#FFD228" width="3.7" height="3.7"/>
		<rect x="115.4" y="72.7" fill="#FF4957" width="3.7" height="3.7"/>
		<rect x="105" y="79.6" fill="#E2E2E2" width="6.9" height="6.9"/>
		<rect x="113.8" y="79.6" fill="#E2E2E2" width="6.9" height="6.9"/>
		<rect x="87.5" y="88" fill="#E2E2E2" width="6.9" height="6.9"/>
		<rect x="96.2" y="88" fill="#E2E2E2" width="6.9" height="6.9"/>
		<rect x="105" y="88" fill="#E2E2E2" width="6.9" height="6.9"/>
		<rect x="113.8" y="88" fill="#E2E2E2" width="6.9" height="6.9"/>
		<path fill="#E2E2E2" d="M92.2,54.2c0-0.7-0.7-1.2-1.5-1.2l0,0c-0.8,0-1.5,0.5-1.5,1.2v4.6c0,0.7,0.7,1.2,1.5,1.2l0,0
			c0.8,0,1.5-0.5,1.5-1.2V54.2z"/>
		<path fill="#E2E2E2" d="M101.4,54.2c0-0.7-0.7-1.2-1.5-1.2l0,0c-0.8,0-1.5,0.5-1.5,1.2v4.6c0,0.7,0.7,1.2,1.5,1.2l0,0
			c0.8,0,1.5-0.5,1.5-1.2V54.2z"/>
		<path fill="#E2E2E2" d="M110.3,54.2c0-0.7-0.7-1.2-1.5-1.2l0,0c-0.8,0-1.5,0.5-1.5,1.2v4.6c0,0.7,0.7,1.2,1.5,1.2l0,0
			c0.8,0,1.5-0.5,1.5-1.2V54.2z"/>
		<path fill="#E2E2E2" d="M119,54.2c0-0.7-0.7-1.2-1.5-1.2l0,0c-0.8,0-1.5,0.5-1.5,1.2v4.6c0,0.7,0.7,1.2,1.5,1.2l0,0
			c0.8,0,1.5-0.5,1.5-1.2V54.2z"/>
	</g>
	<g>
		<rect x="131.2" y="90.1" fill="#FF4957" width="0.5" height="1.2"/>
		<polygon fill="#EEEEEE" points="131.7,90.5 131.2,90.5 130.3,86.2 130.3,61.4 132.6,61.4 132.6,86.2 		"/>
		<rect x="130.5" y="61.4" fill="#FFFFFF" width="1.9" height="25.1"/>
		<rect x="130.1" y="61.4" fill="#FF4957" width="2.7" height="8.9"/>
		<rect x="131" y="71.9" fill="#EEEEEE" width="0.9" height="14.6"/>
		<rect x="131.2" y="69.7" fill="#FF4957" width="0.5" height="16.8"/>
	</g>
</g>
</svg>
