<?xml version="1.0" encoding="utf-8"?>
<!-- Generator: Adobe Illustrator 18.0.0, SVG Export Plug-In . SVG Version: 6.00 Build 0)  -->
<!DOCTYPE svg PUBLIC "-//W3C//DTD SVG 1.1//EN" "http://www.w3.org/Graphics/SVG/1.1/DTD/svg11.dtd">
<svg version="1.1" id="Layer_1" xmlns="http://www.w3.org/2000/svg" xmlns:xlink="http://www.w3.org/1999/xlink" x="0px" y="0px"
	 viewBox="0 0 149 134" enable-background="new 0 0 149 134" xml:space="preserve">
<g>
	<defs>
		<path id="SVGID_1_" d="M68.4,44.7c0.3,12.4-9.7,22.5-22,22.6c-12,0-21.9-9.7-22.2-21.7c-0.3-12.4,9.7-22.5,22-22.6
			C58.3,23,68.2,32.7,68.4,44.7z"/>
	</defs>
	<use xlink:href="#SVGID_1_"  overflow="visible" fill="#E9E8E6"/>
	<clipPath id="SVGID_2_">
		<use xlink:href="#SVGID_1_"  overflow="visible"/>
	</clipPath>
	<g id="Design_1_" clip-path="url(#SVGID_2_)">
		<g>
			<g>
				<g>
					<path fill="#0071BC" d="M55.7,42.8c0-0.3,0.3-0.5,0.6-0.5l2.6,0.3c0.3,0,0.5,0.3,0.5,0.6l-0.2,1.7c0,0.3-0.3,0.5-0.6,0.5
						L56,45.1c-0.3,0-0.5-0.3-0.5-0.6L55.7,42.8z"/>
					<path fill="#29ABE2" d="M59.3,42.9C59.3,42.8,59.3,42.8,59.3,42.9L59.3,42.9c0.1-0.1,0.1,0,0.1,0l-0.2,2.4c0,0,0,0.1-0.1,0.1
						l0,0c0,0-0.1,0-0.1-0.1L59.3,42.9z"/>
					<g>
						<path fill="#E6E6E6" d="M50.7,39.4l7,0.7c0.4,0,0.7,0.3,0.9,0.5l-1.1-0.1l-0.1,1l1.5,0.2c0,0.1,0,0.1,0,0.1l-0.5,4.5
							c-0.1,0.8-0.8,1.3-1.6,1.2l-7-0.7c-0.8-0.1-1.4-0.8-1.3-1.5l0.5-4.5C49.2,40,50,39.3,50.7,39.4z"/>
						<path fill="#FFFFFF" d="M57.5,40.5l1.1,0.1c0.2,0.3,0.4,0.7,0.4,1l-1.5-0.2L57.5,40.5z"/>
					</g>
					<path fill="#0071BC" d="M51.4,54.8C51.4,54.8,51.3,54.8,51.4,54.8l0.7-7c0.1-0.8,0.8-1.3,1.7-1.2l0.6,0.1
						c0.8,0.1,1.5,0.8,1.4,1.6l-0.7,7c-0.1,0.8-0.9,1.3-1.7,1.2l-0.6-0.1l0,0l-1.4-0.1c-0.4,0-0.6-0.3-0.6-0.7l0-0.1
						C50.8,55.1,51,54.8,51.4,54.8z"/>
					<circle fill="#0071BC" cx="36.4" cy="41.7" r="2.6"/>
					<path fill="#29ABE2" d="M34.3,52.6c-0.1,0.5,0.3,1,0.9,1.1l0,0c0.5,0.1,1-0.3,1.1-0.9l2.3-22.3c0.1-0.5-0.3-1-0.9-1.1l0,0
						c-0.5-0.1-1,0.3-1.1,0.9L34.3,52.6z"/>
					<path fill="#29ABE2" d="M50.4,46.9c-0.1,0.8,0.5,1.5,1.3,1.6l3.5,0.4c0.8,0.1,1.5-0.5,1.6-1.3l0.8-7.4c0.1-0.8-0.5-1.5-1.3-1.6
						l-3.5-0.4c-0.8-0.1-1.5,0.5-1.6,1.3L50.4,46.9z"/>
					<path fill="#FFD228" d="M38.6,30.6c0,0,1.4,7.9,12.4,9l-0.7,7.2c0,0-13.4,0.6-14,6L38.6,30.6z"/>
				</g>
				<path opacity="0.1" d="M59.4,43.9l-0.1,1c0,0.3-0.3,0.5-0.6,0.5l0,0l-0.1,0.8c-0.1,0.8-0.8,1.3-1.6,1.2l-0.2,0l0,0
					c-0.1,0.6-0.5,1.1-1,1.2l-0.7,6.5c-0.1,0.8-0.9,1.3-1.7,1.2l-0.6-0.1l0,0l-1.4-0.1c-0.4,0-0.6-0.3-0.6-0.7l0-0.1
					c0-0.3,0.3-0.6,0.6-0.6c0,0,0,0,0,0l0.7-6.5l-0.4,0c-0.8-0.1-1.6-0.8-1.5-1.5l-0.2,0l0,0v0c0,0-13.3,0.6-13.8,6l0.1,0
					c-0.1,0.5-0.5,0.9-1,0.9c-0.5-0.1-0.9-0.5-0.8-1.1l0.9-8.7c-1-0.5-1.6-1.5-1.5-2.6c0,0,0-0.1,0-0.1L59.4,43.9z"/>
			</g>
			<g>
				<g>
					<path fill="#FFCCA6" d="M54.6,50.8c0.1-0.3,0.2-0.5,0-0.6l-3-1.3c-0.2-0.1-0.5,0.1-0.6,0.4l0,0c-0.1,0.3-0.1,0.6,0.2,0.7l3,1.3
						C54.3,51.4,54.4,51.1,54.6,50.8L54.6,50.8z"/>
					<path fill="#DDB192" d="M54.6,50.2l-3-1.3c-0.2-0.1-0.4,0.1-0.4,0.1S54.8,50.3,54.6,50.2z"/>
					<path fill="#F3EBD4" d="M54.3,51.2C54.3,51.2,54.3,51.1,54.3,51.2c-0.4-0.2-0.7-0.3-0.5-0.7c0.2-0.4,0.4-0.3,0.8-0.1
						c0,0,0.1,0,0.1,0L54.3,51.2z"/>
				</g>
				<g>
					<path fill="#FFCCA6" d="M54.2,52c0.1-0.3,0.2-0.5,0-0.6l-3-1.3c-0.2-0.1-0.5,0.1-0.6,0.4l0,0c-0.1,0.3-0.1,0.6,0.2,0.7l3,1.3
						C53.9,52.5,54,52.3,54.2,52L54.2,52z"/>
					<path fill="#DDB192" d="M54.2,51.3l-3-1.3c-0.2-0.1-0.4,0.1-0.4,0.1S54.4,51.4,54.2,51.3z"/>
					<path fill="#F3EBD4" d="M53.9,52.3C53.9,52.3,53.8,52.3,53.9,52.3c-0.4-0.2-0.7-0.3-0.5-0.7c0.2-0.4,0.4-0.3,0.8-0.1
						c0,0,0.1,0,0.1,0L53.9,52.3z"/>
				</g>
				<g>
					<path fill="#FFCCA6" d="M53.8,53.1c0.1-0.3,0.2-0.5,0-0.6l-3-1.3c-0.2-0.1-0.5,0.1-0.6,0.4l0,0c-0.1,0.3-0.1,0.6,0.2,0.7l3,1.3
						C53.6,53.6,53.7,53.4,53.8,53.1L53.8,53.1z"/>
					<path fill="#DDB192" d="M53.8,52.5l-3-1.3c-0.2-0.1-0.4,0.1-0.4,0.1S54,52.6,53.8,52.5z"/>
					<path fill="#F3EBD4" d="M53.5,53.4C53.5,53.4,53.5,53.4,53.5,53.4c-0.4-0.2-0.7-0.3-0.5-0.7c0.2-0.4,0.4-0.3,0.8-0.1
						c0,0,0.1,0,0.1,0L53.5,53.4z"/>
				</g>
				<g>
					<path fill="#FFCCA6" d="M53,54c0.1-0.3,0.2-0.5,0-0.6l-2.4-1c-0.2-0.1-0.5,0.1-0.6,0.4l0,0c-0.1,0.3-0.1,0.6,0.2,0.7l2.4,1
						C52.7,54.6,52.8,54.3,53,54L53,54z"/>
					<path fill="#DDB192" d="M53,53.4l-2.4-1c-0.2-0.1-0.4,0.1-0.4,0.1S53.2,53.5,53,53.4z"/>
					<path fill="#F3EBD4" d="M52.7,54.4C52.7,54.4,52.6,54.3,52.7,54.4c-0.4-0.2-0.7-0.3-0.5-0.7c0.2-0.4,0.4-0.3,0.8-0.1
						c0,0,0.1,0,0.1,0L52.7,54.4z"/>
				</g>
			</g>
			<g>
				<polygon fill="#303354" points="59.1,56.5 69,61.3 69,51.7 60.3,51.5 				"/>
				<polygon fill="#FFFFFF" points="59.4,51.8 58.8,51.7 57.7,56.1 58.5,56.3 				"/>
				<polygon fill="#FFCEA4" points="58.7,51.8 57.8,51.5 56.2,52.8 56.2,55.3 57.7,55.8 				"/>
				<path fill="#F7BE97" d="M57.9,51.5c0.3,0.8,0.5,1.8,0.1,2.4c-0.9,1.5-2.7,1.6-2.7,1.6c0.5-1.9,0.7-3.9,0.8-4.6L57.9,51.5z"/>
				<path fill="#FFCCA8" d="M55,55.6c0,0,1.8,0,2.8-1.8c0.9-1.8-1.1-5.1-1.4-5.2c-0.3-0.1-3.1-1-3.1-1s-0.6,0.9,0.3,1.4
					c0.9,0.5,2,1,2,1S55.4,52.2,55,55.6z"/>
				<path fill="#FFDCC5" d="M54.3,48c0,0,0,0.2-0.3,0.2L53.3,48c0,0,0-0.2,0.1-0.3L54.3,48z"/>
			</g>
		</g>
		<polygon fill="#F2F2F2" points="59.4,51.9 58.7,51.8 58.6,52.2 59.3,52.3 		"/>
	</g>
</g>
<path fill="#E9E8E6" d="M71.3,86.4c0.2,9.4-7.3,17.1-16.7,17.1c-9.1,0-16.7-7.3-16.8-16.4c-0.2-9.4,7.3-17.1,16.7-17.1
	C63.5,69.9,71.1,77.2,71.3,86.4z"/>
<circle fill="#E9E8E6" cx="98.7" cy="64" r="29.1"/>
<g>
	<rect x="106.9" y="58.3" fill="#636363" width="5.3" height="1"/>
	<rect x="112.6" y="58.3" fill="#636363" width="1.7" height="1"/>
</g>
<g>
	<rect x="106.9" y="60.7" fill="#636363" width="2.5" height="1"/>
	<rect x="109.9" y="60.7" fill="#636363" width="4.5" height="1"/>
</g>
<g>
	<g>
		<g>
			<g>
				<g>
					<defs>
						<path id="SVGID_3_" d="M98.1,89.4h-0.2c-1,0-1.7-0.8-1.7-1.7v-1.9c0-1,0.8-1.8,1.7-1.8h0.2c1,0,1.7,0.8,1.7,1.8v1.9
							C99.9,88.6,99.1,89.4,98.1,89.4z"/>
					</defs>
					<clipPath id="SVGID_4_">
						<use xlink:href="#SVGID_3_"  overflow="visible"/>
					</clipPath>
				</g>
				<g>
					<defs>
						<path id="SVGID_5_" d="M98.1,89.4h-0.2c-1,0-1.7-0.8-1.7-1.7v-1.9c0-1,0.8-1.8,1.7-1.8h0.2c1,0,1.7,0.8,1.7,1.8v1.9
							C99.9,88.6,99.1,89.4,98.1,89.4z"/>
					</defs>
					<use xlink:href="#SVGID_5_"  overflow="visible" fill="#E2444C"/>
					<clipPath id="SVGID_6_">
						<use xlink:href="#SVGID_5_"  overflow="visible"/>
					</clipPath>
					<path clip-path="url(#SVGID_6_)" fill="#E95163" d="M96.4,88.7h-0.4c-1.6,0-2.8-1.2-2.8-2.8v-3c0-1.5,1.3-2.8,2.8-2.8h0.4
						c1.6,0,2.8,1.2,2.8,2.8v3C99.3,87.5,98,88.7,96.4,88.7z"/>
					<rect x="96" y="84" clip-path="url(#SVGID_6_)" fill="#FFD228" width="2" height="1.6"/>
				</g>
				<g>
					<defs>
						<path id="SVGID_7_" d="M98.1,89.4h-0.2c-1,0-1.7-0.8-1.7-1.7v-1.9c0-1,0.8-1.8,1.7-1.8h0.2c1,0,1.7,0.8,1.7,1.8v1.9
							C99.9,88.6,99.1,89.4,98.1,89.4z"/>
					</defs>
					<clipPath id="SVGID_8_">
						<use xlink:href="#SVGID_7_"  overflow="visible"/>
					</clipPath>
				</g>
			</g>
			<rect x="97.6" y="83.6" fill="#F1F2F2" width="0.8" height="0.4"/>
			<rect x="97.8" y="82.1" fill="#0E303F" width="0.4" height="1.9"/>
		</g>
		<g>
			<g>
				<path fill="#FFBF5D" d="M98.7,89c0,0.2-0.2,0.2-0.4,0.2l0,0c-0.2,0-0.4,0-0.4-0.2l0.1-2.3c0-0.2,0.1-0.3,0.3-0.3l0,0
					c0.2,0,0.3,0.1,0.3,0.3L98.7,89z"/>
				<path fill="#FFBF5D" d="M98.5,90.8c0.1,0.1-0.1,0.2-0.2,0.3l0,0c-0.1,0.1-0.3,0.2-0.4,0.2l-0.8-1.1c-0.1-0.1-0.5-0.4-0.3-0.5
					c0,0,0,0,0.1-0.1c0.2-0.1,0.5,0,0.6,0.1L98.5,90.8z"/>
				<path fill="#FFBF5D" d="M99.6,89.1c0,0.1-0.2,0.1-0.4,0.1l0,0c-0.2,0-0.4,0-0.4-0.1l0.1-1.2c0-0.1,0.1-0.2,0.3-0.2l0,0
					c0.2,0,0.3,0.1,0.3,0.2L99.6,89.1z"/>
				<path fill="#FFB700" d="M100.4,89.2c0,0.1-0.2,0.1-0.4,0.1l0,0c-0.2,0-0.4,0-0.4-0.1l0.1-0.9c0-0.1,0.1-0.1,0.3-0.1l0,0
					c0.2,0,0.3,0.1,0.3,0.1L100.4,89.2z"/>
				<path fill="#FFB700" d="M101.2,89.2c0,0-0.2,0-0.3,0l0,0c-0.2,0-0.4,0-0.4,0l0.1-0.5c0,0,0-0.1,0.2-0.1l0,0c0.2,0,0.2,0,0.2,0.1
					L101.2,89.2z"/>
				<path fill="#FFBF5D" d="M101.2,91.2c0,0.3-0.3,0.6-0.7,0.6h-2c-0.4,0-0.7-0.3-0.7-0.6v-2.5c0-0.3,0.3,0.2,0.7,0.2h1.2
					c0.2,0,0.4,0.1,0.7,0.1c0.3,0,0.7-0.1,0.7,0.1L101.2,91.2z"/>
			</g>
			<g>
				<path fill="#F2AD58" d="M101.2,89.2L101.2,89.2L101.2,89.2L101.2,89.2C101.2,89.1,101.2,89.1,101.2,89.2l-0.1-0.5
					c0,0,0-0.1-0.2-0.1c-0.2,0-0.2,0-0.2,0.1l-0.1,0.4c0,0,0,0,0,0c0,0,0,0,0,0l-0.1-0.7c0-0.1-0.1-0.1-0.3-0.1
					c-0.2,0-0.3,0.1-0.3,0.1L99.7,89h-0.1v2.9h1c0.4,0,0.7-0.3,0.7-0.6L101.2,89.2z"/>
			</g>
			<path fill="#FFFFFF" d="M101.1,91.7c0,0.1,0,0.1-0.2,0.1h-2.8c-0.2,0-0.1-0.1-0.1-0.1l0,0c0-0.1,0-0.1,0.1-0.1h2.8
				C101,91.6,101.1,91.6,101.1,91.7L101.1,91.7z"/>
			<path fill="#27A3D9" d="M101.1,91.9c0,0.2,0,0.7-0.2,0.7h-2.8c-0.2,0-0.1-0.5-0.1-0.7l0,0c0-0.2,0-0.1,0.1-0.1h2.8
				C101,91.8,101.1,91.7,101.1,91.9L101.1,91.9z"/>
		</g>
	</g>
	<g>
		<path fill="#0E303F" d="M94,76.7c-0.4,1.7-0.9,3.5-1.3,5.2c4,0,8,0,12,0c-0.4-1.7-0.9-3.5-1.3-5.2C100.2,76.7,97.1,76.7,94,76.7z"
			/>
		<path fill="#E2444C" d="M105.4,81.9H91.9c-0.3,0-0.6,0.3-0.6,0.7v0.3H106v-0.3C106,82.2,105.7,81.9,105.4,81.9z"/>
		<path fill="#0E303F" d="M78.4,74.7v2.9c0,0.6,0.5,1,1,1h38.4c0.6,0,1-0.4,1-1v-2.9H78.4z"/>
		<path fill="#0E303F" d="M118.9,74.7V50.2c0-0.6-0.5-1-1-1H79.4c-0.6,0-1,0.5-1,1v24.5H118.9z"/>
		<rect x="80.1" y="50.8" fill="#FFFFFF" width="37.1" height="22.2"/>
	</g>
	<rect x="79.5" y="51" fill="#636363" width="38.3" height="4.4"/>
	<g>
		<circle fill="#01C5C5" cx="81.2" cy="53.2" r="0.7"/>
		<circle fill="#B8DE70" cx="83.1" cy="53.2" r="0.7"/>
		<circle fill="#F29232" cx="85" cy="53.2" r="0.7"/>
	</g>
	<rect x="87" y="52.6" fill="#FFFFFF" width="28.5" height="1.4"/>
	<g>
		<rect x="82" y="58.3" fill="#636363" width="2.5" height="1"/>
		<rect x="84.9" y="58.3" fill="#636363" width="4.5" height="1"/>
	</g>
	<g>
		<rect x="82" y="60.7" fill="#636363" width="1.1" height="1"/>
		<rect x="83.5" y="60.7" fill="#636363" width="5.8" height="1"/>
	</g>
	<g>
		<g>
			<rect x="83.8" y="62.3" fill="#F1F1F1" width="2.7" height="2.5"/>
		</g>
		<g>
			<rect x="108.5" y="62.6" fill="#F1F1F1" width="2.7" height="2.5"/>
		</g>
		<g>
			<path fill="#FFD228" d="M109.8,64.7c-0.1,0-0.2,0-0.2-0.1l-0.7-0.6c-0.1-0.1-0.1-0.2,0-0.3c0.1-0.1,0.2-0.1,0.3,0l0.6,0.5
				l0.6-1.2c0.1-0.1,0.2-0.2,0.3-0.1c0.1,0.1,0.2,0.2,0.1,0.3l-0.7,1.4C110,64.7,109.9,64.7,109.8,64.7
				C109.8,64.7,109.8,64.7,109.8,64.7z"/>
		</g>
		<g>
			<path fill="#FFD228" d="M85.1,64.6c-0.1,0-0.2,0-0.2-0.1l-0.7-0.6c-0.1-0.1-0.1-0.2,0-0.3c0.1-0.1,0.2-0.1,0.3,0l0.6,0.5l0.6-1.2
				c0.1-0.1,0.2-0.2,0.3-0.1c0.1,0.1,0.2,0.2,0.1,0.3l-0.7,1.4C85.4,64.5,85.3,64.5,85.1,64.6C85.1,64.6,85.1,64.6,85.1,64.6z"/>
		</g>
	</g>
	<g>
		<g>
			<g>
				<rect x="91.7" y="58.2" fill="#64BFEA" width="10.9" height="2.5"/>
			</g>
			<g>
				<rect x="91.7" y="61.3" fill="#64BFEA" width="2.7" height="2.5"/>
			</g>
			<g>
				<rect x="95.8" y="61.3" fill="#64BFEA" width="2.7" height="2.5"/>
			</g>
			<g>
				<rect x="99.9" y="61.3" fill="#64BFEA" width="2.7" height="2.5"/>
			</g>
			<g>
				<rect x="91.7" y="64.5" fill="#64BFEA" width="10.9" height="2.5"/>
			</g>
		</g>
		<g>
			<rect x="91.7" y="67.7" fill="#E95163" width="10.9" height="2.8"/>
			<g>
				<rect x="94.8" y="68.8" fill="#FFFFFF" width="1.6" height="0.6"/>
				<rect x="96.7" y="68.8" fill="#FFFFFF" width="2.9" height="0.6"/>
			</g>
		</g>
	</g>
</g>
<g>
	<path fill="#E2444C" d="M61.6,93L61.6,93c-0.7,0-1.5-1.4-1.9-3.6c0.6,0.1,1.3,0.1,1.9,0.1c0.6,0,1.3,0,1.9-0.1
		C63.2,91.6,62.4,93,61.6,93L61.6,93z"/>
	<path fill="#E2444C" d="M61.6,88.7c-0.7,0-1.4,0-2-0.1c-0.1-0.6-0.1-1.3-0.1-2c0-0.7,0-1.4,0.1-2c0.6-0.1,1.3-0.1,2-0.1
		c0.7,0,1.4,0,2,0.1c0.1,0.6,0.1,1.3,0.1,2c0,0.7,0,1.4-0.1,2C63,88.6,62.3,88.7,61.6,88.7L61.6,88.7z"/>
	<path fill="#E2444C" d="M55.2,86.5c0-0.7,1.4-1.5,3.6-1.9c-0.1,0.6-0.1,1.3-0.1,1.9c0,0.6,0,1.3,0.1,1.9
		C56.6,88.1,55.2,87.2,55.2,86.5L55.2,86.5z"/>
	<path fill="#E2444C" d="M61.6,80L61.6,80c0.7,0,1.5,1.4,1.9,3.6c-0.6-0.1-1.3-0.1-1.9-0.1c-0.6,0-1.3,0-1.9,0.1
		C60.1,81.5,60.9,80,61.6,80L61.6,80z"/>
	<path fill="#E2444C" d="M64.4,84.6c2.2,0.4,3.6,1.2,3.6,1.9v0c0,0.7-1.4,1.5-3.6,1.9c0.1-0.6,0.1-1.3,0.1-1.9
		C64.5,85.9,64.5,85.2,64.4,84.6L64.4,84.6z"/>
	<path fill="#E2444C" d="M67.9,85c-0.8-0.6-2.1-1-3.6-1.2c-0.2-1.4-0.6-2.7-1.2-3.6C65.5,80.8,67.3,82.7,67.9,85L67.9,85z"/>
	<path fill="#E2444C" d="M60.1,80.2c-0.6,0.8-1,2.1-1.2,3.6c-1.4,0.2-2.7,0.6-3.6,1.2C55.9,82.7,57.8,80.8,60.1,80.2L60.1,80.2z"/>
	<path fill="#E2444C" d="M55.3,88c0.8,0.6,2.1,1,3.6,1.2c0.2,1.4,0.6,2.7,1.2,3.6C57.8,92.2,55.9,90.4,55.3,88L55.3,88z"/>
	<path fill="#E2444C" d="M63.1,92.8c0.6-0.8,1-2.1,1.2-3.6c1.5-0.2,2.7-0.6,3.6-1.2C67.3,90.4,65.5,92.2,63.1,92.8L63.1,92.8z"/>
	<path fill="#303354" d="M61.6,94.9c-0.3,0-0.5,0-0.7,0v1.7H48.1V76.4h12.8v1.8c0.2,0,0.5,0,0.7,0c0.2,0,0.3,0,0.5,0v-2.8
		c0-1-0.8-1.8-1.8-1.8H48.7c-1,0-1.8,0.8-1.8,1.8V98c0,1,0.8,1.8,1.8,1.8h11.7c1,0,1.8-0.8,1.8-1.8v-3.2
		C61.9,94.9,61.8,94.9,61.6,94.9L61.6,94.9z"/>
	<path fill="#303354" d="M52.6,74.9h3.7c0.1,0,0.2,0.1,0.2,0.2c0,0.1-0.1,0.2-0.2,0.2h-3.7c-0.1,0-0.2-0.1-0.2-0.2
		C52.4,75,52.5,74.9,52.6,74.9L52.6,74.9z"/>
	<path fill="#303354" d="M54.5,98.9c-0.5,0-0.9-0.4-0.9-0.9c0-0.5,0.4-0.9,0.9-0.9c0.5,0,0.9,0.4,0.9,0.9
		C55.4,98.5,55,98.9,54.5,98.9L54.5,98.9z"/>
	<path fill="#303354" d="M54.5,98.9"/>
	<circle fill="#FFD228" cx="54.5" cy="98.1" r="1"/>
</g>
</svg>
